<svg xmlns="http://www.w3.org/2000/svg" xmlns:xlink="http://www.w3.org/1999/xlink" width="48.761" height="48.774" viewBox="0 0 48.761 48.774">
  <defs>
    <linearGradient id="linear-gradient" y1="0.238" x2="0.839" y2="1.309" gradientUnits="objectBoundingBox">
      <stop offset="0" stop-color="#ff78ac"/>
      <stop offset="0.527" stop-color="#f1f1f4"/>
      <stop offset="1" stop-color="#54f7ff"/>
    </linearGradient>
  </defs>
  <g id="noun_write_2191868" transform="translate(-8 -7.975)">
    <path id="Path_385" data-name="Path 385" d="M59.089,9.624h0l-.061-.067a5.4,5.4,0,0,0-7.637,0L24.824,36.471l-2.67,9.362a2.17,2.17,0,0,0,0,1.219,2.2,2.2,0,0,0,2.706,1.524l9.173-2.645L60.68,18.961a5.558,5.558,0,0,0-.043-7.8Zm-1.505,6.229L31.729,42.012l-4.266,1.219h0l1.268-4.419L54.512,12.72h0a1.073,1.073,0,0,1,1.524,0l1.548,1.566a1.109,1.109,0,0,1,0,1.566Z" transform="translate(-5.493 0)" fill="url(#linear-gradient)"/>
    <path id="Path_386" data-name="Path 386" d="M49.6,39.663a2.206,2.206,0,0,0-2.188,2.219v8.862a4.407,4.407,0,0,1-4.382,4.431H16.758a4.407,4.407,0,0,1-4.382-4.431V24.152a4.407,4.407,0,0,1,4.382-4.425h8.758a2.219,2.219,0,0,0,0-4.437H16.758A8.813,8.813,0,0,0,8,24.152V50.744a8.807,8.807,0,0,0,8.758,8.862H43.027a8.807,8.807,0,0,0,8.758-8.862V41.882A2.2,2.2,0,0,0,49.6,39.663Z" transform="translate(0 -2.857)" fill="url(#linear-gradient)"/>
  </g>
</svg>
