<svg xmlns="http://www.w3.org/2000/svg" xmlns:xlink="http://www.w3.org/1999/xlink" width="62.109" height="72.264" viewBox="0 0 62.109 72.264">
  <defs>
    <linearGradient id="linear-gradient" x1="-0.337" y1="0.264" x2="0.235" y2="1.234" gradientUnits="objectBoundingBox">
      <stop offset="0" stop-color="#ff78ac"/>
      <stop offset="0.527" stop-color="#f1f1f4"/>
      <stop offset="1" stop-color="#54f7ff"/>
    </linearGradient>
  </defs>
  <path id="Path_382" data-name="Path 382" d="M60.795,30.6A9.451,9.451,0,0,0,51,25.668a8.81,8.81,0,0,0-6.478-5.486l1.43-5.065A11.731,11.731,0,0,0,44.843,5.88a11.558,11.558,0,0,0-7.656-5.6,11.832,11.832,0,0,0-13.781,8.5l-.2.892L23,8.774A11.79,11.79,0,0,0,9.2.293,11.412,11.412,0,0,0,1.666,5.711,12.026,12.026,0,0,0,.437,15L4.694,30.11a11.3,11.3,0,0,0-3.012,7.656v9.709c.37,14.134,11.863,24.8,26.7,24.8a27.405,27.405,0,0,0,16.776-5.536A25.359,25.359,0,0,0,54.3,53.129c2.692-1.228,4.442-3.5,5.452-7.084L61.619,39.5c.69-2.474.841-6.108-.825-8.9M49.066,46.752a3.488,3.488,0,0,1-2.625-4.19c.017-.067,1.969-6.949,2-7.034a3.429,3.429,0,1,1,6.562,1.986L53.139,44.06a3.569,3.569,0,0,1-4.072,2.692m-39.9.606V37.783A3.678,3.678,0,0,1,12.839,34.1H30.725a4.091,4.091,0,0,1-.135,8.178H20.36a1.96,1.96,0,0,0,0,3.921h1.094a5.028,5.028,0,0,1,4.964,5.2v2.053a1.952,1.952,0,1,0,3.9,0V51.4a9.313,9.313,0,0,0-1.531-5.2h2.187a7.636,7.636,0,0,0,13.243,2.12A7.048,7.048,0,0,0,47.2,50.3c-1.649,8.447-9.187,14.454-18.88,14.454C15.43,64.74,9.17,54.543,9.17,47.358M10.819,7.63A4.351,4.351,0,0,1,15.8,10.81L20.091,25.6a3.222,3.222,0,0,0,6.26,0L30.641,10.81a4.307,4.307,0,0,1,4.981-3.18,4.18,4.18,0,0,1,3.163,5.3L33.754,30.766a7.934,7.934,0,0,0-3-.606H12.5L7.639,12.93a4.26,4.26,0,0,1,3.18-5.3M42.672,26.812A3.828,3.828,0,0,1,45.5,31.675L41.9,44.312a3.933,3.933,0,0,1-4.526,2.945,3.853,3.853,0,0,1-2.692-2.305,8.583,8.583,0,0,0,3.87-6.9A7.363,7.363,0,0,0,37.1,33.408l1.043-3.651a3.939,3.939,0,0,1,4.526-2.945" transform="translate(0 -0.014)" fill-rule="evenodd" fill="url(#linear-gradient)"/>
</svg>
