<svg xmlns="http://www.w3.org/2000/svg" xmlns:xlink="http://www.w3.org/1999/xlink" width="39" height="38" viewBox="0 0 39 38">
  <defs>
    <linearGradient id="linear-gradient" x1="0.443" y1="-0.331" x2="0.674" y2="1.242" gradientUnits="objectBoundingBox">
      <stop offset="0" stop-color="#ff78ac"/>
      <stop offset="0.527" stop-color="#f1f1f4"/>
      <stop offset="1" stop-color="#54f7ff"/>
    </linearGradient>
  </defs>
  <g id="Group_88" data-name="Group 88" transform="translate(-1677 -9544)">
    <ellipse id="Ellipse_10" data-name="Ellipse 10" cx="19.5" cy="19" rx="19.5" ry="19" transform="translate(1677 9544)" fill="url(#linear-gradient)"/>
    <g id="Group_42" data-name="Group 42" transform="translate(1687 9552.903)">
      <g id="Group_41" data-name="Group 41">
        <path id="Path_395" data-name="Path 395" d="M13.975,0H5.321A5.319,5.319,0,0,0,0,5.321V13.98A5.318,5.318,0,0,0,5.321,19.3H13.98A5.322,5.322,0,0,0,19.3,13.975V5.321A5.325,5.325,0,0,0,13.975,0Zm3.763,13.955a3.783,3.783,0,0,1-3.784,3.784H5.342a3.783,3.783,0,0,1-3.784-3.784V5.342A3.783,3.783,0,0,1,5.342,1.558h8.612a3.783,3.783,0,0,1,3.784,3.784Z" fill="#0d131b"/>
        <path id="Path_396" data-name="Path 396" d="M16.013,10.93A5.085,5.085,0,1,0,21.1,16.017,5.085,5.085,0,0,0,16.013,10.93Zm0,8.4a3.316,3.316,0,1,1,3.316-3.316A3.316,3.316,0,0,1,16.013,19.329Z" transform="translate(-6.365 -6.365)" fill="#0d131b"/>
        <path id="Path_397" data-name="Path 397" d="M35.241,8.93A1.14,1.14,0,1,1,34.1,7.79,1.139,1.139,0,0,1,35.241,8.93Z" transform="translate(-19.193 -4.536)" fill="#0d131b"/>
      </g>
    </g>
  </g>
</svg>
