<svg xmlns="http://www.w3.org/2000/svg" xmlns:xlink="http://www.w3.org/1999/xlink" width="39" height="38" viewBox="0 0 39 38">
  <defs>
    <linearGradient id="linear-gradient" x1="0.45" y1="-0.282" x2="0.6" y2="1.199" gradientUnits="objectBoundingBox">
      <stop offset="0" stop-color="#ff78ac"/>
      <stop offset="0.527" stop-color="#f1f1f4"/>
      <stop offset="1" stop-color="#54f7ff"/>
    </linearGradient>
  </defs>
  <g id="Group_86" data-name="Group 86" transform="translate(-1612 -9544)">
    <ellipse id="Ellipse_9" data-name="Ellipse 9" cx="19.5" cy="19" rx="19.5" ry="19" transform="translate(1612 9544)" fill="url(#linear-gradient)"/>
    <g id="Group_18" data-name="Group 18" transform="translate(1622.122 9555.46)">
      <path id="Path_10" data-name="Path 10" d="M1238.582,68.956a7.856,7.856,0,0,1-2.261.62,3.95,3.95,0,0,0,1.731-2.177,7.885,7.885,0,0,1-2.5.955,3.94,3.94,0,0,0-6.709,3.591,11.176,11.176,0,0,1-8.114-4.114,3.94,3.94,0,0,0,1.218,5.256,3.92,3.92,0,0,1-1.783-.493c0,.017,0,.033,0,.05a3.939,3.939,0,0,0,3.158,3.86,3.943,3.943,0,0,1-1.778.068,3.941,3.941,0,0,0,3.678,2.734,7.946,7.946,0,0,1-5.828,1.63,11.2,11.2,0,0,0,17.236-9.432q0-.256-.012-.509a8,8,0,0,0,1.965-2.038Zm0,0" transform="translate(-1219.393 -67.11)" fill="#0d131b"/>
    </g>
  </g>
</svg>
