<svg id="Group_16" data-name="Group 16" xmlns="http://www.w3.org/2000/svg" width="34.504" height="34.5" viewBox="0 0 34.504 34.5">
  <path id="Path_84" data-name="Path 84" d="M0,18.428v-2.61a3,3,0,0,0,.145-.5A17.157,17.157,0,0,1,12.331.782C13.568.427,14.859.256,16.125,0h2.3q.636.1,1.273.193A17.237,17.237,0,1,1,.7,22.021C.37,20.852.23,19.627,0,18.428Zm6.978,9.183c5.547,5.891,15.434,5.6,20.572,0l-6.958-3.952c0-.808-.008-1.652.006-2.5a1.193,1.193,0,0,1,.137-.486c.276-.563.569-1.117.853-1.675.066-.131.113-.378.184-.384.759-.059.964-.637,1.089-1.209A3.955,3.955,0,0,0,23,15.68,2.769,2.769,0,0,1,23,14.3a3.889,3.889,0,0,0-2-4.748,3.3,3.3,0,0,1-.946-.819,3.5,3.5,0,0,0-4.225-1.229,7.373,7.373,0,0,0-3.352,2.824,5.186,5.186,0,0,0-.8,4.518.665.665,0,0,1-.006.421,3.447,3.447,0,0,0,.191,2.673c.08.221.3.532.484.548.6.052.58.5.731.887a10.663,10.663,0,0,0,.645,1.2c.08.148.222.3.225.447.022.913.011,1.828.011,2.63Z" fill="#606060"/>
  <path id="Path_85" data-name="Path 85" d="M45.24,67.242l6.98-3.949c0-.8.011-1.717-.011-2.63,0-.151-.145-.3-.225-.447a10.917,10.917,0,0,1-.645-1.2c-.151-.389-.128-.834-.731-.887-.18-.015-.406-.327-.484-.548a3.447,3.447,0,0,1-.191-2.673.666.666,0,0,0,.006-.421,5.19,5.19,0,0,1,.8-4.52,7.355,7.355,0,0,1,3.352-2.824,3.505,3.505,0,0,1,4.225,1.229,3.275,3.275,0,0,0,.946.819,3.89,3.89,0,0,1,2,4.748,2.769,2.769,0,0,0,0,1.376,3.934,3.934,0,0,1-.134,1.732c-.126.572-.332,1.151-1.089,1.209-.071.006-.117.253-.184.384-.284.558-.577,1.112-.853,1.675a1.193,1.193,0,0,0-.137.486c-.014.844-.006,1.688-.006,2.5l6.958,3.952C60.676,72.844,50.788,73.132,45.24,67.242Z" transform="translate(-38.262 -39.631)" fill="#fff"/>
</svg>
