<svg xmlns="http://www.w3.org/2000/svg" xmlns:xlink="http://www.w3.org/1999/xlink" width="153.133" height="153.133" viewBox="0 0 153.133 153.133">
  <defs>
    <filter id="Path_381" x="0" y="0" width="153.133" height="153.133" filterUnits="userSpaceOnUse">
      <feOffset dy="3" input="SourceAlpha"/>
      <feGaussianBlur stdDeviation="3" result="blur"/>
      <feFlood flood-opacity="0.161"/>
      <feComposite operator="in" in2="blur"/>
      <feComposite in="SourceGraphic"/>
    </filter>
    <linearGradient id="linear-gradient" x1="-0.275" y1="0.42" x2="1.081" y2="0.5" gradientUnits="objectBoundingBox">
      <stop offset="0" stop-color="#ff78ac"/>
      <stop offset="0.527" stop-color="#f1f1f4"/>
      <stop offset="1" stop-color="#54f7ff"/>
    </linearGradient>
  </defs>
  <g id="Group_17" data-name="Group 17" transform="translate(-869.862 -1528.005)">
    <g transform="matrix(1, 0, 0, 1, 869.86, 1528.01)" filter="url(#Path_381)">
      <g id="Path_381-2" data-name="Path 381" transform="translate(9 6)" fill="#f7f9f9">
        <path d="M 67.56635284423828 133.6327209472656 C 58.64678955078125 133.6327209472656 49.99482727050781 131.8861389160156 41.85080718994141 128.4415130615234 C 37.93642425537109 126.7858581542969 34.1609001159668 124.7365493774414 30.62907981872559 122.3505172729492 C 27.13042640686035 119.9868621826172 23.84040832519531 117.272331237793 20.85038948059082 114.2823333740234 C 17.86037063598633 111.2923202514648 15.14584350585938 108.0022964477539 12.78220748901367 104.5036468505859 C 10.39615249633789 100.9718246459961 8.346861839294434 97.19628143310547 6.691207408905029 93.28189849853516 C 3.246589183807373 85.13787841796875 1.500007390975952 76.48591613769531 1.500007390975952 67.56635284423828 C 1.500007390975952 58.64678955078125 3.246589183807373 49.99482727050781 6.691207408905029 41.85080718994141 C 8.346861839294434 37.93642425537109 10.39615249633789 34.1609001159668 12.78220748901367 30.62907981872559 C 15.14584350585938 27.13042640686035 17.86037063598633 23.84038925170898 20.85038948059082 20.85038948059082 C 23.84038925170898 17.86037063598633 27.13042640686035 15.14584350585938 30.62907981872559 12.78220748901367 C 34.1609001159668 10.39615249633789 37.93642425537109 8.346861839294434 41.85080718994141 6.691207408905029 C 49.99482727050781 3.246589183807373 58.64678955078125 1.500007390975952 67.56635284423828 1.500007390975952 C 76.48591613769531 1.500007390975952 85.13787841796875 3.246589183807373 93.28189849853516 6.691207408905029 C 97.19628143310547 8.346861839294434 100.9718246459961 10.39615249633789 104.5036468505859 12.78220748901367 C 108.0022964477539 15.14584350585938 111.2923202514648 17.86037063598633 114.2823333740234 20.85038948059082 C 117.272331237793 23.84040832519531 119.9868621826172 27.13042640686035 122.3505172729492 30.62907981872559 C 124.7365493774414 34.1609001159668 126.7858581542969 37.93642425537109 128.4415130615234 41.85080718994141 C 131.8861389160156 49.99482727050781 133.6327209472656 58.64678955078125 133.6327209472656 67.56635284423828 C 133.6327209472656 76.48591613769531 131.8861389160156 85.13787841796875 128.4415130615234 93.28189849853516 C 126.7858581542969 97.19628143310547 124.7365493774414 100.9718246459961 122.3505172729492 104.5036468505859 C 119.9868621826172 108.0022964477539 117.272331237793 111.2923202514648 114.2823333740234 114.2823333740234 C 111.2923202514648 117.272331237793 108.0022964477539 119.9868621826172 104.5036468505859 122.3505172729492 C 100.9718246459961 124.7365493774414 97.19628143310547 126.7858581542969 93.28189849853516 128.4415130615234 C 85.13787841796875 131.8861389160156 76.48591613769531 133.6327209472656 67.56635284423828 133.6327209472656 Z" stroke="none"/>
        <path d="M 67.56635284423828 3 C 58.8486328125 3 50.39327239990234 4.706695556640625 42.43513488769531 8.072715759277344 C 38.60995483398438 9.69061279296875 34.92034912109375 11.69331359863281 31.46879577636719 14.02513122558594 C 28.04923248291016 16.33533477783203 24.83354949951172 18.98853302001953 21.91105651855469 21.91105651855469 C 18.98853302001953 24.83354949951172 16.33533477783203 28.04923248291016 14.02513122558594 31.46879577636719 C 11.69331359863281 34.92034912109375 9.69061279296875 38.60995483398438 8.072715759277344 42.43513488769531 C 4.706695556640625 50.39327239990234 3 58.8486328125 3 67.56635284423828 C 3 76.28407287597656 4.706695556640625 84.73943328857422 8.072715759277344 92.69757080078125 C 9.69061279296875 96.52275085449219 11.69331359863281 100.2123565673828 14.02513122558594 103.6639099121094 C 16.33533477783203 107.0834732055664 18.98853302001953 110.2991485595703 21.91105651855469 113.2216491699219 C 24.83354949951172 116.144172668457 28.04923248291016 118.7973709106445 31.46879577636719 121.1075744628906 C 34.92034912109375 123.4393920898438 38.60995483398438 125.4420928955078 42.43513488769531 127.0599899291992 C 50.39327239990234 130.4260101318359 58.8486328125 132.1327056884766 67.56635284423828 132.1327056884766 C 76.28407287597656 132.1327056884766 84.73943328857422 130.4260101318359 92.69757080078125 127.0599899291992 C 96.52275085449219 125.4420928955078 100.2123565673828 123.4393920898438 103.6639099121094 121.1075744628906 C 107.0834732055664 118.7973709106445 110.2991485595703 116.144172668457 113.2216491699219 113.2216491699219 C 116.144172668457 110.2991485595703 118.7973709106445 107.0834732055664 121.1075744628906 103.6639099121094 C 123.4393920898438 100.2123565673828 125.4420928955078 96.52275085449219 127.0599899291992 92.69757080078125 C 130.4260101318359 84.73943328857422 132.1327056884766 76.28407287597656 132.1327056884766 67.56635284423828 C 132.1327056884766 58.8486328125 130.4260101318359 50.39327239990234 127.0599899291992 42.43513488769531 C 125.4420928955078 38.60995483398438 123.4393920898438 34.92034912109375 121.1075744628906 31.46879577636719 C 118.7973709106445 28.04923248291016 116.144172668457 24.83354949951172 113.2216491699219 21.91105651855469 C 110.2991485595703 18.98853302001953 107.0834732055664 16.33533477783203 103.6639099121094 14.02513122558594 C 100.2123565673828 11.69331359863281 96.52275085449219 9.69061279296875 92.69757080078125 8.072715759277344 C 84.73943328857422 4.706695556640625 76.28407287597656 3 67.56635284423828 3 M 67.56635284423828 0 C 104.8822174072266 0 135.1327056884766 30.25049591064453 135.1327056884766 67.56635284423828 C 135.1327056884766 104.8822174072266 104.8822174072266 135.1327056884766 67.56635284423828 135.1327056884766 C 30.25049591064453 135.1327056884766 0 104.8822174072266 0 67.56635284423828 C 0 30.25049591064453 30.25049591064453 0 67.56635284423828 0 Z" stroke="none" fill="#fff"/>
      </g>
    </g>
    <g id="noun_play_2572149" transform="translate(929.872 1576.552)">
      <g id="Play_Button" data-name="Play Button" transform="translate(0 0)">
        <path id="Path_380" data-name="Path 380" d="M47.188,24.33,18.659,7.563A7.738,7.738,0,0,0,7,14.244V47.777a7.738,7.738,0,0,0,3.895,6.732,7.945,7.945,0,0,0,3.843,1.032,7.738,7.738,0,0,0,3.921-1.083L47.188,37.691a7.738,7.738,0,0,0,0-13.362Zm-2.579,8.9L16.234,50.021a2.579,2.579,0,0,1-4.076-2.244V14.244A2.579,2.579,0,0,1,13.449,12a2.786,2.786,0,0,1,1.29-.361,2.579,2.579,0,0,1,1.29.361L44.4,28.792a2.579,2.579,0,0,1,0,4.437Z" transform="translate(-7 -6.496)" fill="url(#linear-gradient)"/>
      </g>
    </g>
  </g>
</svg>
