<svg xmlns="http://www.w3.org/2000/svg" width="42.625" height="42.625" viewBox="0 0 42.625 42.625">
  <defs>
    <style>
      .cls-1 {
        fill: #fff;
        fill-rule: evenodd;
      }
    </style>
  </defs>
  <path class="cls-1" d="M706.267,898.38H681.149a8.755,8.755,0,0,0-8.756,8.756v25.117a8.755,8.755,0,0,0,8.756,8.756h14.357V924.053h-5.825V917.49h5.825v-4.636h0c0.025-4.442,1.634-5.959,1.634-5.959a7.987,7.987,0,0,1,6.067-2.978H709.1V910.1h-3.932a2.7,2.7,0,0,0-2.946,2.756h0v4.636h6.586L708,924.053h-5.78v16.956h4.043a8.755,8.755,0,0,0,8.755-8.756V907.136A8.755,8.755,0,0,0,706.267,898.38Z" transform="translate(-672.406 -898.375)"/>
</svg>
